<svg xmlns="http://www.w3.org/2000/svg" xmlns:xlink="http://www.w3.org/1999/xlink" width="500" zoomAndPan="magnify" viewBox="0 0 375 132.749998" height="177" preserveAspectRatio="xMidYMid meet" version="1.0"><defs><g/><clipPath id="3409e0b933"><path d="M 0.351562 10 L 374 10 L 374 132.5 L 0.351562 132.5 Z M 0.351562 10 " clip-rule="nonzero"/></clipPath><clipPath id="66e2ed7191"><path d="M 0.351562 4 L 85 4 L 85 121 L 0.351562 121 Z M 0.351562 4 " clip-rule="nonzero"/></clipPath><clipPath id="4037441316"><path d="M 129 2 L 249 2 L 249 122.5 L 129 122.5 Z M 129 2 " clip-rule="nonzero"/></clipPath><clipPath id="b3a329fe35"><rect x="0" width="374" y="0" height="123"/></clipPath></defs><g clip-path="url(#3409e0b933)"><g transform="matrix(1, 0, 0, 1, 0.000000000000000056, 10)"><g clip-path="url(#b3a329fe35)"><g clip-path="url(#66e2ed7191)"><g fill="#000000" fill-opacity="1"><g transform="translate(-2.296485, 118.442975)"><g><path d="M 8.5 -103.53125 C 7.03125 -103.53125 5.769531 -104.050781 4.71875 -105.09375 C 3.664062 -106.144531 3.140625 -107.351562 3.140625 -108.71875 C 3.140625 -110.1875 3.664062 -111.421875 4.71875 -112.421875 C 5.769531 -113.421875 7.03125 -113.921875 8.5 -113.921875 L 81.96875 -113.921875 C 83.4375 -113.921875 84.644531 -113.421875 85.59375 -112.421875 C 86.539062 -111.421875 87.015625 -110.1875 87.015625 -108.71875 C 87.015625 -107.351562 86.539062 -106.144531 85.59375 -105.09375 C 84.644531 -104.050781 83.4375 -103.53125 81.96875 -103.53125 Z M 8.5 -82.609375 C 7.03125 -82.609375 5.769531 -83.101562 4.71875 -84.09375 C 3.664062 -85.09375 3.140625 -86.273438 3.140625 -87.640625 C 3.140625 -89.109375 3.664062 -90.363281 4.71875 -91.40625 C 5.769531 -92.457031 7.03125 -92.984375 8.5 -92.984375 L 34.609375 -92.984375 C 36.078125 -92.984375 37.335938 -92.457031 38.390625 -91.40625 C 39.441406 -90.363281 39.96875 -89.109375 39.96875 -87.640625 L 39.96875 -3.78125 C 39.96875 -2.3125 39.441406 -1.050781 38.390625 0 C 37.335938 1.050781 36.078125 1.578125 34.609375 1.578125 C 33.242188 1.578125 32.007812 1.050781 30.90625 0 C 29.8125 -1.050781 29.265625 -2.3125 29.265625 -3.78125 L 29.265625 -82.609375 Z M 81.96875 -92.984375 C 83.4375 -92.984375 84.644531 -92.457031 85.59375 -91.40625 C 86.539062 -90.363281 87.015625 -89.109375 87.015625 -87.640625 C 87.015625 -86.273438 86.539062 -85.09375 85.59375 -84.09375 C 84.644531 -83.101562 83.4375 -82.609375 81.96875 -82.609375 L 60.890625 -82.609375 L 60.890625 -3.78125 C 60.890625 -2.3125 60.363281 -1.050781 59.3125 0 C 58.269531 1.050781 57.015625 1.578125 55.546875 1.578125 C 54.179688 1.578125 52.972656 1.050781 51.921875 0 C 50.867188 -1.050781 50.34375 -2.3125 50.34375 -3.78125 L 50.34375 -87.640625 C 50.34375 -89.109375 50.867188 -90.363281 51.921875 -91.40625 C 52.972656 -92.457031 54.179688 -92.984375 55.546875 -92.984375 Z M 81.96875 -92.984375 "/></g></g></g></g><g fill="#000000" fill-opacity="1"><g transform="translate(76.530404, 118.442975)"><g><path d="M 23.125 -3.625 C 23.125 -2.257812 22.625 -1.050781 21.625 0 C 20.632812 1.050781 19.40625 1.578125 17.9375 1.578125 C 16.46875 1.578125 15.207031 1.050781 14.15625 0 C 13.113281 -1.050781 12.59375 -2.257812 12.59375 -3.625 L 12.59375 -108.875 C 12.59375 -110.34375 13.113281 -111.578125 14.15625 -112.578125 C 15.207031 -113.578125 16.46875 -114.078125 17.9375 -114.078125 C 19.40625 -114.078125 20.632812 -113.578125 21.625 -112.578125 C 22.625 -111.578125 23.125 -110.34375 23.125 -108.875 Z M 44.21875 -3.625 C 44.21875 -2.257812 43.71875 -1.050781 42.71875 0 C 41.71875 1.050781 40.484375 1.578125 39.015625 1.578125 C 37.546875 1.578125 36.285156 1.050781 35.234375 0 C 34.191406 -1.050781 33.671875 -2.257812 33.671875 -3.625 L 33.671875 -108.875 C 33.671875 -110.34375 34.191406 -111.578125 35.234375 -112.578125 C 36.285156 -113.578125 37.546875 -114.078125 39.015625 -114.078125 C 40.484375 -114.078125 41.71875 -113.578125 42.71875 -112.578125 C 43.71875 -111.578125 44.21875 -110.34375 44.21875 -108.875 Z M 44.21875 -3.625 "/></g></g></g><g clip-path="url(#4037441316)"><g fill="#ff6700" fill-opacity="1"><g transform="translate(120.906518, 118.442975)"><g><path d="M 126.65625 -74.421875 C 127.082031 -73.054688 126.976562 -71.71875 126.34375 -70.40625 C 125.71875 -69.09375 124.671875 -68.226562 123.203125 -67.8125 C 121.835938 -67.394531 120.472656 -67.523438 119.109375 -68.203125 C 117.742188 -68.890625 116.851562 -69.914062 116.4375 -71.28125 C 113.082031 -81.5625 107 -89.898438 98.1875 -96.296875 C 94.09375 -99.234375 89.523438 -101.539062 84.484375 -103.21875 C 79.453125 -104.894531 74.160156 -105.734375 68.609375 -105.734375 C 59.265625 -105.734375 51.234375 -103.945312 44.515625 -100.375 C 37.804688 -96.8125 32.429688 -92.117188 28.390625 -86.296875 C 24.359375 -80.484375 21.6875 -74.0625 20.375 -67.03125 C 19.0625 -60 19.0625 -52.96875 20.375 -45.9375 C 21.6875 -38.914062 24.359375 -32.492188 28.390625 -26.671875 C 32.429688 -20.847656 37.804688 -16.148438 44.515625 -12.578125 C 51.234375 -9.015625 59.265625 -7.234375 68.609375 -7.234375 C 74.160156 -7.234375 79.453125 -8.070312 84.484375 -9.75 C 89.523438 -11.425781 94.09375 -13.734375 98.1875 -16.671875 C 107 -22.867188 113.082031 -31.210938 116.4375 -41.703125 C 116.851562 -43.171875 117.742188 -44.21875 119.109375 -44.84375 C 120.472656 -45.46875 121.835938 -45.570312 123.203125 -45.15625 C 124.671875 -44.738281 125.71875 -43.875 126.34375 -42.5625 C 126.976562 -41.25 127.082031 -39.859375 126.65625 -38.390625 C 124.664062 -32.304688 121.78125 -26.640625 118 -21.390625 C 114.226562 -16.148438 109.773438 -11.695312 104.640625 -8.03125 C 99.492188 -4.457031 93.90625 -1.625 87.875 0.46875 C 81.84375 2.570312 75.421875 3.625 68.609375 3.625 C 58.640625 3.625 49.90625 1.945312 42.40625 -1.40625 C 34.90625 -4.769531 28.660156 -9.3125 23.671875 -15.03125 C 18.691406 -20.75 14.96875 -27.171875 12.5 -34.296875 C 10.039062 -41.429688 8.8125 -48.800781 8.8125 -56.40625 C 8.8125 -64.007812 10.039062 -71.378906 12.5 -78.515625 C 14.96875 -85.648438 18.691406 -92.070312 23.671875 -97.78125 C 28.660156 -103.5 34.90625 -108.035156 42.40625 -111.390625 C 49.90625 -114.753906 58.640625 -116.4375 68.609375 -116.4375 C 75.421875 -116.4375 81.84375 -115.4375 87.875 -113.4375 C 93.90625 -111.445312 99.492188 -108.617188 104.640625 -104.953125 C 109.773438 -101.171875 114.226562 -96.679688 118 -91.484375 C 121.78125 -86.296875 124.664062 -80.609375 126.65625 -74.421875 Z M 36.1875 -37.453125 C 35.457031 -38.816406 35.273438 -40.175781 35.640625 -41.53125 C 36.003906 -42.894531 36.816406 -43.945312 38.078125 -44.6875 C 39.441406 -45.414062 40.804688 -45.597656 42.171875 -45.234375 C 43.535156 -44.867188 44.582031 -44.003906 45.3125 -42.640625 C 46.570312 -40.648438 48.066406 -38.785156 49.796875 -37.046875 C 51.523438 -35.316406 53.390625 -33.878906 55.390625 -32.734375 C 59.367188 -30.210938 63.773438 -28.953125 68.609375 -28.953125 C 72.378906 -28.953125 75.914062 -29.660156 79.21875 -31.078125 C 82.519531 -32.492188 85.328125 -34.457031 87.640625 -36.96875 C 90.160156 -39.382812 92.128906 -42.269531 93.546875 -45.625 C 94.960938 -48.988281 95.671875 -52.609375 95.671875 -56.484375 C 95.671875 -60.265625 94.960938 -63.832031 93.546875 -67.1875 C 92.128906 -70.539062 90.160156 -73.425781 87.640625 -75.84375 C 85.328125 -78.25 82.519531 -80.1875 79.21875 -81.65625 C 75.914062 -83.125 72.378906 -83.859375 68.609375 -83.859375 C 63.773438 -83.859375 59.367188 -82.65625 55.390625 -80.25 C 51.296875 -77.832031 47.9375 -74.523438 45.3125 -70.328125 C 44.582031 -68.960938 43.535156 -68.070312 42.171875 -67.65625 C 40.804688 -67.238281 39.441406 -67.394531 38.078125 -68.125 C 36.816406 -68.863281 36.003906 -69.941406 35.640625 -71.359375 C 35.273438 -72.773438 35.457031 -74.164062 36.1875 -75.53125 C 39.539062 -81.507812 44.101562 -86.175781 49.875 -89.53125 C 55.644531 -92.882812 61.890625 -94.5625 68.609375 -94.5625 C 73.847656 -94.5625 78.773438 -93.5625 83.390625 -91.5625 C 88.003906 -89.570312 92.039062 -86.847656 95.5 -83.390625 C 98.863281 -79.929688 101.515625 -75.894531 103.453125 -71.28125 C 105.390625 -66.664062 106.359375 -61.734375 106.359375 -56.484375 C 106.359375 -51.242188 105.390625 -46.3125 103.453125 -41.6875 C 101.515625 -37.070312 98.863281 -33.035156 95.5 -29.578125 C 92.039062 -26.015625 88.003906 -23.234375 83.390625 -21.234375 C 78.773438 -19.242188 73.847656 -18.25 68.609375 -18.25 C 65.347656 -18.25 62.117188 -18.691406 58.921875 -19.578125 C 55.722656 -20.472656 52.707031 -21.707031 49.875 -23.28125 C 44.101562 -26.851562 39.539062 -31.578125 36.1875 -37.453125 Z M 36.1875 -37.453125 "/></g></g></g></g><g fill="#000000" fill-opacity="1"><g transform="translate(243.794672, 118.442975)"><g><path d="M 99.59375 -113.609375 C 100.4375 -114.753906 101.59375 -115.457031 103.0625 -115.71875 C 104.53125 -115.988281 105.894531 -115.703125 107.15625 -114.859375 C 108.300781 -114.023438 109.003906 -112.875 109.265625 -111.40625 C 109.535156 -109.9375 109.25 -108.625 108.40625 -107.46875 L 75.046875 -59.640625 C 74.210938 -58.378906 73.035156 -57.613281 71.515625 -57.34375 C 69.992188 -57.082031 68.65625 -57.425781 67.5 -58.375 C 66.976562 -58.789062 66.554688 -59.265625 66.234375 -59.796875 L 32.890625 -107.46875 C 32.148438 -108.625 31.882812 -109.9375 32.09375 -111.40625 C 32.300781 -112.875 32.984375 -114.023438 34.140625 -114.859375 C 35.296875 -115.703125 36.632812 -115.988281 38.15625 -115.71875 C 39.675781 -115.457031 40.859375 -114.753906 41.703125 -113.609375 L 70.484375 -71.90625 Z M 23.28125 -3.78125 C 23.28125 -2.3125 22.753906 -1.050781 21.703125 0 C 20.660156 1.050781 19.40625 1.578125 17.9375 1.578125 C 16.46875 1.578125 15.207031 1.050781 14.15625 0 C 13.113281 -1.050781 12.59375 -2.3125 12.59375 -3.78125 L 12.59375 -110.453125 C 12.59375 -111.921875 13.113281 -113.179688 14.15625 -114.234375 C 15.207031 -115.285156 16.46875 -115.8125 17.9375 -115.8125 C 19.40625 -115.8125 20.660156 -115.285156 21.703125 -114.234375 C 22.753906 -113.179688 23.28125 -111.921875 23.28125 -110.453125 Z M 128.703125 -3.78125 C 128.703125 -2.3125 128.175781 -1.050781 127.125 0 C 126.082031 1.050781 124.773438 1.578125 123.203125 1.578125 C 121.835938 1.578125 120.628906 1.050781 119.578125 0 C 118.535156 -1.050781 118.015625 -2.3125 118.015625 -3.78125 L 118.015625 -110.453125 C 118.015625 -111.921875 118.535156 -113.179688 119.578125 -114.234375 C 120.628906 -115.285156 121.835938 -115.8125 123.203125 -115.8125 C 124.773438 -115.8125 126.082031 -115.285156 127.125 -114.234375 C 128.175781 -113.179688 128.703125 -111.921875 128.703125 -110.453125 Z M 107.3125 -3.78125 C 107.3125 -2.3125 106.785156 -1.050781 105.734375 0 C 104.679688 1.050781 103.421875 1.578125 101.953125 1.578125 C 100.484375 1.578125 99.222656 1.050781 98.171875 0 C 97.128906 -1.050781 96.609375 -2.3125 96.609375 -3.78125 L 96.609375 -53.34375 L 75.046875 -22.34375 C 74.210938 -21.1875 73.035156 -20.476562 71.515625 -20.21875 C 69.992188 -19.957031 68.65625 -20.191406 67.5 -20.921875 C 66.875 -21.554688 66.453125 -22.03125 66.234375 -22.34375 L 44.6875 -53.34375 L 44.6875 -3.78125 C 44.6875 -2.3125 44.160156 -1.050781 43.109375 0 C 42.054688 1.050781 40.742188 1.578125 39.171875 1.578125 C 37.816406 1.578125 36.613281 1.050781 35.5625 0 C 34.507812 -1.050781 33.984375 -2.3125 33.984375 -3.78125 L 33.984375 -70.328125 C 33.984375 -72.222656 34.71875 -73.640625 36.1875 -74.578125 C 37.34375 -75.421875 38.679688 -75.707031 40.203125 -75.4375 C 41.722656 -75.175781 42.898438 -74.472656 43.734375 -73.328125 L 70.484375 -34.609375 L 97.546875 -73.171875 C 98.597656 -74.742188 100.066406 -75.53125 101.953125 -75.53125 C 103.421875 -75.53125 104.679688 -75.03125 105.734375 -74.03125 C 106.785156 -73.03125 107.3125 -71.796875 107.3125 -70.328125 Z M 107.3125 -3.78125 "/></g></g></g></g></g></g></svg>